<?xml version="1.0" encoding="UTF-8" standalone="no"?>
<!-- Created with Inkscape (http://www.inkscape.org/) -->

<svg
   xmlns:dc="http://purl.org/dc/elements/1.1/"
   xmlns:cc="http://creativecommons.org/ns#"
   xmlns:rdf="http://www.w3.org/1999/02/22-rdf-syntax-ns#"
   xmlns:svg="http://www.w3.org/2000/svg"
   xmlns="http://www.w3.org/2000/svg"
   xmlns:sodipodi="http://sodipodi.sourceforge.net/DTD/sodipodi-0.dtd"
   xmlns:inkscape="http://www.inkscape.org/namespaces/inkscape"
   width="200"
   height="200"
   viewBox="0 0 200 200"
   id="svg2"
   version="1.1"
   inkscape:version="0.91 r13725"
   sodipodi:docname="first.svg">
  <defs
     id="defs4" />
  <sodipodi:namedview
     id="base"
     pagecolor="#ffffff"
     bordercolor="#666666"
     borderopacity="1.0"
     inkscape:pageopacity="0.0"
     inkscape:pageshadow="2"
     inkscape:zoom="3.959798"
     inkscape:cx="122.30907"
     inkscape:cy="91.722504"
     inkscape:document-units="px"
     inkscape:current-layer="g4697"
     showgrid="false"
     units="px"
     inkscape:window-width="2454"
     inkscape:window-height="1561"
     inkscape:window-x="106"
     inkscape:window-y="39"
     inkscape:window-maximized="1">
    <inkscape:grid
       type="xygrid"
       id="grid4356"
       empspacing="100" />
  </sodipodi:namedview>
  <metadata
     id="metadata7">
    <rdf:RDF>
      <cc:Work
         rdf:about="">
        <dc:format>image/svg+xml</dc:format>
        <dc:type
           rdf:resource="http://purl.org/dc/dcmitype/StillImage" />
        <dc:title></dc:title>
      </cc:Work>
    </rdf:RDF>
  </metadata>
  <g
     inkscape:groupmode="layer"
     id="layer2"
     inkscape:label="ignore"
     style="display:none">
    <path
       style="fill:none;fill-rule:evenodd;stroke:#000000;stroke-width:0.2;stroke-linecap:butt;stroke-linejoin:miter;stroke-miterlimit:4;stroke-dasharray:none;stroke-opacity:1"
       d="m 0,100 200,0"
       id="path4136"
       inkscape:connector-curvature="0" />
    <path
       inkscape:connector-curvature="0"
       id="path4153"
       d="m 100,0 0,200"
       style="fill:none;fill-rule:evenodd;stroke:#000000;stroke-width:0.2;stroke-linecap:butt;stroke-linejoin:miter;stroke-miterlimit:4;stroke-dasharray:none;stroke-opacity:1" />
    <path
       style="fill:#000000;fill-opacity:1;fill-rule:evenodd;stroke:none;stroke-width:1px;stroke-linecap:butt;stroke-linejoin:miter;stroke-opacity:1"
       d="m 82.354972,36.767486 c -7.25826,14.096732 -8.756171,30.625214 -6.469358,46.152844 1.108869,6.3791 2.787439,12.855 6.224507,18.39907 1.777605,3.45674 6.761838,4.25562 8.966303,0.76236 2.358075,-2.90739 -0.346069,-6.20731 -1.203532,-9.1408 -1.39489,-3.55946 -3.651654,-7.33888 -4.242882,-13.70738 -1.624452,-16.86433 6.802635,-17.92656 10.774313,-18.34923 5.519237,-0.34407 11.937257,0.34672 12.704527,19.85377 0.55979,7.45117 -3.89815,15.10752 -2.09387,17.31928 1.5765,4.15823 7.30317,1.12819 8.46098,-1.93475 3.96343,-7.15609 2.70778,-15.63211 2.22,-23.42152 -1.29776,-12.52248 -4.28749,-25.073011 -10.22775,-36.239545 -2.98888,-5.087881 -8.533246,-9.91634 -14.840753,-8.661241 -4.693935,0.981228 -8.090886,4.930685 -10.272485,8.967142 z"
       id="path4178"
       inkscape:connector-curvature="0"
       sodipodi:nodetypes="cccccccccccccc" />
    <path
       style="fill:#000000;fill-opacity:1;fill-rule:evenodd;stroke:#000000;stroke-width:10;stroke-linecap:round;stroke-linejoin:round;stroke-miterlimit:4;stroke-dasharray:none;stroke-opacity:1"
       d="M 52.847928,65.18011 23.770821,76.01646 51.48206,90.93715 Z"
       id="path4222"
       inkscape:connector-curvature="0"
       sodipodi:nodetypes="cccc" />
    <path
       sodipodi:nodetypes="cc"
       inkscape:connector-curvature="0"
       id="path4224"
       d="m 108.33075,128.44595 39.94799,-2.90987 -31.10405,14.39081 z"
       style="fill:#000000;fill-opacity:1;fill-rule:evenodd;stroke:#000000;stroke-width:10;stroke-linecap:round;stroke-linejoin:round;stroke-miterlimit:4;stroke-dasharray:none;stroke-opacity:1"
       inkscape:transform-center-x="-18.875574"
       inkscape:transform-center-y="2.4180547" />
    <circle
       style="color:#000000;clip-rule:nonzero;display:inline;overflow:visible;visibility:visible;opacity:1;isolation:auto;mix-blend-mode:normal;color-interpolation:sRGB;color-interpolation-filters:linearRGB;solid-color:#000000;solid-opacity:1;fill:#000000;fill-opacity:1;fill-rule:evenodd;stroke:none;stroke-width:15;stroke-linecap:round;stroke-linejoin:miter;stroke-miterlimit:4;stroke-dasharray:none;stroke-dashoffset:0;stroke-opacity:1;color-rendering:auto;image-rendering:auto;shape-rendering:auto;text-rendering:auto;enable-background:accumulate"
       id="path4226"
       cx="66.464279"
       cy="129.82143"
       r="18.571428" />
    <circle
       r="13.303571"
       cy="58.124992"
       cx="144.55356"
       id="circle4228"
       style="color:#000000;clip-rule:nonzero;display:inline;overflow:visible;visibility:visible;opacity:1;isolation:auto;mix-blend-mode:normal;color-interpolation:sRGB;color-interpolation-filters:linearRGB;solid-color:#000000;solid-opacity:1;fill:#000000;fill-opacity:1;fill-rule:evenodd;stroke:none;stroke-width:15;stroke-linecap:round;stroke-linejoin:miter;stroke-miterlimit:4;stroke-dasharray:none;stroke-dashoffset:0;stroke-opacity:1;color-rendering:auto;image-rendering:auto;shape-rendering:auto;text-rendering:auto;enable-background:accumulate" />
    <circle
       style="color:#000000;clip-rule:nonzero;display:inline;overflow:visible;visibility:visible;opacity:1;isolation:auto;mix-blend-mode:normal;color-interpolation:sRGB;color-interpolation-filters:linearRGB;solid-color:#000000;solid-opacity:1;fill:#000000;fill-opacity:1;fill-rule:evenodd;stroke:none;stroke-width:15;stroke-linecap:round;stroke-linejoin:miter;stroke-miterlimit:4;stroke-dasharray:none;stroke-dashoffset:0;stroke-opacity:1;color-rendering:auto;image-rendering:auto;shape-rendering:auto;text-rendering:auto;enable-background:accumulate"
       id="circle4245"
       cx="59.553558"
       cy="33.124992"
       r="8.3035707" />
    <circle
       style="color:#000000;clip-rule:nonzero;display:inline;overflow:visible;visibility:visible;opacity:1;isolation:auto;mix-blend-mode:normal;color-interpolation:sRGB;color-interpolation-filters:linearRGB;solid-color:#000000;solid-opacity:1;fill:none;fill-opacity:1;fill-rule:evenodd;stroke:#ff0000;stroke-width:1.00000012;stroke-linecap:round;stroke-linejoin:round;stroke-miterlimit:4;stroke-dasharray:none;stroke-dashoffset:0;stroke-opacity:1;color-rendering:auto;image-rendering:auto;shape-rendering:auto;text-rendering:auto;enable-background:accumulate"
       id="path4381"
       cx="100"
       cy="100"
       r="95.000008" />
    <circle
       r="9.9107132"
       cy="97.375"
       cx="159.58928"
       id="circle4468"
       style="color:#000000;clip-rule:nonzero;display:inline;overflow:visible;visibility:visible;opacity:1;isolation:auto;mix-blend-mode:normal;color-interpolation:sRGB;color-interpolation-filters:linearRGB;solid-color:#000000;solid-opacity:1;fill:#000000;fill-opacity:1;fill-rule:evenodd;stroke:none;stroke-width:15;stroke-linecap:round;stroke-linejoin:miter;stroke-miterlimit:4;stroke-dasharray:none;stroke-dashoffset:0;stroke-opacity:1;color-rendering:auto;image-rendering:auto;shape-rendering:auto;text-rendering:auto;enable-background:accumulate" />
  </g>
  <g
     inkscape:groupmode="layer"
     id="layer5"
     inkscape:label="arena"
     style="display:inline">
    <path
       style="display:inline;fill:#000000;fill-opacity:1;fill-rule:evenodd;stroke:none;stroke-width:1px;stroke-linecap:butt;stroke-linejoin:miter;stroke-opacity:1"
       d="m 82.354972,36.767484 c -7.25826,14.096732 -8.756171,30.625214 -6.469358,46.152844 1.108869,6.3791 2.787439,12.855 6.224507,18.399072 1.777605,3.45674 6.761838,4.25562 8.966303,0.76236 2.358075,-2.907392 -0.346069,-6.207312 -1.203532,-9.140802 -1.39489,-3.55946 -3.651654,-7.33888 -4.242882,-13.70738 -1.624452,-16.86433 6.802635,-17.92656 10.774313,-18.34923 5.519237,-0.34407 11.937257,0.34672 12.704527,19.85377 0.55979,7.45117 -3.89815,15.10752 -2.09387,17.31928 1.5765,4.158232 7.30317,1.12819 8.46098,-1.93475 3.96343,-7.15609 2.70778,-15.63211 2.22,-23.42152 -1.29776,-12.52248 -4.28749,-25.073011 -10.22775,-36.239545 -2.98888,-5.087881 -8.533246,-9.91634 -14.840753,-8.661241 -4.693935,0.981228 -8.090886,4.930685 -10.272485,8.967142 z"
       id="path4178-3"
       inkscape:connector-curvature="0"
       sodipodi:nodetypes="cccccccccccccc" />
    <path
       style="color:#000000;font-style:normal;font-variant:normal;font-weight:normal;font-stretch:normal;font-size:medium;line-height:normal;font-family:sans-serif;text-indent:0;text-align:start;text-decoration:none;text-decoration-line:none;text-decoration-style:solid;text-decoration-color:#000000;letter-spacing:normal;word-spacing:normal;text-transform:none;direction:ltr;block-progression:tb;writing-mode:lr-tb;baseline-shift:baseline;text-anchor:start;white-space:normal;clip-rule:nonzero;display:inline;overflow:visible;visibility:visible;opacity:1;isolation:auto;mix-blend-mode:normal;color-interpolation:sRGB;color-interpolation-filters:linearRGB;solid-color:#000000;solid-opacity:1;fill:#000000;fill-opacity:1;fill-rule:evenodd;stroke:none;stroke-width:10;stroke-linecap:round;stroke-linejoin:round;stroke-miterlimit:4;stroke-dasharray:none;stroke-dashoffset:0;stroke-opacity:1;color-rendering:auto;image-rendering:auto;shape-rendering:auto;text-rendering:auto;enable-background:accumulate"
       d="m 52.964844,60.181641 c -0.635309,-0.01518 -1.267688,0.09088 -1.863282,0.3125 l -29.076171,10.83789 c -4.02513,1.502505 -4.406484,7.046435 -0.625,9.085938 l 27.710937,14.921875 c 3.22948,1.738054 7.169193,-0.476337 7.363281,-4.138672 l 1.367188,-25.75586 c 0.149165,-2.815766 -2.058005,-5.197953 -4.876953,-5.263671 z"
       id="path4222-6"
       inkscape:connector-curvature="0"
       sodipodi:nodetypes="cccccccc" />
    <path
       style="color:#000000;clip-rule:nonzero;display:inline;overflow:visible;visibility:visible;opacity:1;isolation:auto;mix-blend-mode:normal;color-interpolation:sRGB;color-interpolation-filters:linearRGB;solid-color:#000000;solid-opacity:1;fill:#000000;fill-opacity:1;fill-rule:evenodd;stroke:none;stroke-width:15;stroke-linecap:round;stroke-linejoin:miter;stroke-miterlimit:4;stroke-dasharray:none;stroke-dashoffset:0;stroke-opacity:1;color-rendering:auto;image-rendering:auto;shape-rendering:auto;text-rendering:auto;enable-background:accumulate"
       d="m 85.035707,129.82143 c -4e-6,10.25671 -8.314715,18.57142 -18.571428,18.57142 -10.256713,0 -18.571424,-8.31471 -18.571428,-18.57142 -10e-7,-10.25672 8.314711,-18.57143 18.571428,-18.57143 10.256717,0 18.571429,8.31471 18.571428,18.57143 z"
       id="path4226-2"
       inkscape:connector-curvature="0"
       sodipodi:nodetypes="sssss" />
    <path
       style="color:#000000;clip-rule:nonzero;display:inline;overflow:visible;visibility:visible;opacity:1;isolation:auto;mix-blend-mode:normal;color-interpolation:sRGB;color-interpolation-filters:linearRGB;solid-color:#000000;solid-opacity:1;fill:#000000;fill-opacity:1;fill-rule:evenodd;stroke:none;stroke-width:15;stroke-linecap:round;stroke-linejoin:miter;stroke-miterlimit:4;stroke-dasharray:none;stroke-dashoffset:0;stroke-opacity:1;color-rendering:auto;image-rendering:auto;shape-rendering:auto;text-rendering:auto;enable-background:accumulate"
       d="m 157.85713,58.124989 c 0,7.347359 -5.95621,13.303569 -13.30357,13.30357 -7.34736,-1e-6 -13.30357,-5.956211 -13.30357,-13.30357 0,-7.347359 5.95621,-13.30357 13.30357,-13.303571 7.34736,10e-7 13.30357,5.956212 13.30357,13.303571 z"
       id="circle4228-9"
       inkscape:connector-curvature="0"
       sodipodi:nodetypes="sssss" />
    <path
       style="color:#000000;clip-rule:nonzero;display:inline;overflow:visible;visibility:visible;opacity:1;isolation:auto;mix-blend-mode:normal;color-interpolation:sRGB;color-interpolation-filters:linearRGB;solid-color:#000000;solid-opacity:1;fill:#000000;fill-opacity:1;fill-rule:evenodd;stroke:none;stroke-width:15;stroke-linecap:round;stroke-linejoin:miter;stroke-miterlimit:4;stroke-dasharray:none;stroke-dashoffset:0;stroke-opacity:1;color-rendering:auto;image-rendering:auto;shape-rendering:auto;text-rendering:auto;enable-background:accumulate"
       d="m 67.857129,33.124992 c 0,4.585936 -3.717635,8.303571 -8.303571,8.303571 -4.585935,0 -8.30357,-3.717636 -8.30357,-8.303571 0,-4.585935 3.717635,-8.30357 8.30357,-8.30357 4.585935,0 8.303571,3.717635 8.303571,8.30357 z"
       id="circle4245-3"
       inkscape:connector-curvature="0"
       sodipodi:nodetypes="sssss" />
    <path
       style="color:#000000;clip-rule:nonzero;display:inline;overflow:visible;visibility:visible;opacity:1;isolation:auto;mix-blend-mode:normal;color-interpolation:sRGB;color-interpolation-filters:linearRGB;solid-color:#000000;solid-opacity:1;fill:#000000;fill-opacity:1;fill-rule:evenodd;stroke:none;stroke-width:15;stroke-linecap:round;stroke-linejoin:miter;stroke-miterlimit:4;stroke-dasharray:none;stroke-dashoffset:0;stroke-opacity:1;color-rendering:auto;image-rendering:auto;shape-rendering:auto;text-rendering:auto;enable-background:accumulate"
       d="m 169.49999,97.375 c 0,5.47353 -4.43718,9.91071 -9.91071,9.91071 -5.47353,0 -9.91071,-4.43718 -9.91071,-9.91071 0,-5.473534 4.43718,-9.910711 9.91071,-9.910713 5.47353,2e-6 9.91071,4.437179 9.91071,9.910713 z"
       id="circle4468-1"
       inkscape:connector-curvature="0"
       sodipodi:nodetypes="sssss" />
    <path
       style="color:#000000;font-style:normal;font-variant:normal;font-weight:normal;font-stretch:normal;font-size:medium;line-height:normal;font-family:sans-serif;text-indent:0;text-align:start;text-decoration:none;text-decoration-line:none;text-decoration-style:solid;text-decoration-color:#000000;letter-spacing:normal;word-spacing:normal;text-transform:none;direction:ltr;block-progression:tb;writing-mode:lr-tb;baseline-shift:baseline;text-anchor:start;white-space:normal;clip-rule:nonzero;display:inline;overflow:visible;visibility:visible;opacity:1;isolation:auto;mix-blend-mode:normal;color-interpolation:sRGB;color-interpolation-filters:linearRGB;solid-color:#000000;solid-opacity:1;fill:#000000;fill-opacity:1;fill-rule:evenodd;stroke:none;stroke-width:10;stroke-linecap:round;stroke-linejoin:round;stroke-miterlimit:4;stroke-dasharray:none;stroke-dashoffset:0;stroke-opacity:1;color-rendering:auto;image-rendering:auto;shape-rendering:auto;text-rendering:auto;enable-background:accumulate"
       d="m 148.31445,120.53711 c -0.13291,-0.001 -0.26583,0.003 -0.39843,0.0117 l -39.94922,2.91015 c -3.97351,0.28968 -6.02913,4.88302 -3.59766,8.03907 l 8.84375,11.48047 c 1.42531,1.84979 3.94114,2.46678 6.06055,1.48632 l 31.10547,-14.39062 c 4.84129,-2.24422 3.27154,-9.49593 -2.06446,-9.53711 z"
       id="path4224-3"
       inkscape:connector-curvature="0"
       sodipodi:nodetypes="ccccccccc" />
  </g>
  <g
     style="display:none"
     inkscape:label="arena-shifted"
     id="g4697"
     inkscape:groupmode="layer">
    <path
       style="display:inline;fill:#000000;fill-opacity:1;fill-rule:evenodd;stroke:none;stroke-width:1px;stroke-linecap:butt;stroke-linejoin:miter;stroke-opacity:1"
       d="m 82.354972,66.767482 c -7.25826,14.096732 -8.756171,30.625214 -6.469358,46.152848 1.108869,6.3791 2.787439,12.855 6.224507,18.39907 1.777605,3.45674 6.761838,4.25562 8.966303,0.76236 2.358075,-2.90739 -0.346069,-6.20731 -1.203532,-9.1408 -1.39489,-3.55946 -3.651654,-7.33888 -4.242882,-13.70738 -1.624452,-16.864334 6.802635,-17.926564 10.774313,-18.349234 5.519237,-0.34407 11.937257,0.34672 12.704527,19.853774 0.55979,7.45117 -3.89815,15.10752 -2.09387,17.31928 1.5765,4.15823 7.30317,1.12819 8.46098,-1.93475 3.96343,-7.15609 2.70778,-15.63211 2.22,-23.42152 -1.29776,-12.522484 -4.28749,-25.073015 -10.22775,-36.239549 -2.98888,-5.087881 -8.533246,-9.91634 -14.840753,-8.661241 -4.693935,0.981228 -8.090886,4.930685 -10.272485,8.967142 z"
       id="path4178-3-1"
       inkscape:connector-curvature="0"
       sodipodi:nodetypes="cccccccccccccc" />
    <path
       style="color:#000000;font-style:normal;font-variant:normal;font-weight:normal;font-stretch:normal;font-size:medium;line-height:normal;font-family:sans-serif;text-indent:0;text-align:start;text-decoration:none;text-decoration-line:none;text-decoration-style:solid;text-decoration-color:#000000;letter-spacing:normal;word-spacing:normal;text-transform:none;direction:ltr;block-progression:tb;writing-mode:lr-tb;baseline-shift:baseline;text-anchor:start;white-space:normal;clip-rule:nonzero;display:inline;overflow:visible;visibility:visible;opacity:1;isolation:auto;mix-blend-mode:normal;color-interpolation:sRGB;color-interpolation-filters:linearRGB;solid-color:#000000;solid-opacity:1;fill:#000000;fill-opacity:1;fill-rule:evenodd;stroke:none;stroke-width:10;stroke-linecap:round;stroke-linejoin:round;stroke-miterlimit:4;stroke-dasharray:none;stroke-dashoffset:0;stroke-opacity:1;color-rendering:auto;image-rendering:auto;shape-rendering:auto;text-rendering:auto;enable-background:accumulate"
       d="m 52.964844,90.181639 c -0.635309,-0.01518 -1.267688,0.09088 -1.863282,0.3125 L 22.025391,101.33203 c -4.02513,1.5025 -4.406484,7.04643 -0.625,9.08594 l 27.710937,14.92187 c 3.22948,1.73806 7.169193,-0.47634 7.363281,-4.13867 l 1.367188,-25.75586 c 0.149165,-2.815766 -2.058005,-5.197953 -4.876953,-5.263671 z"
       id="path4222-6-0"
       inkscape:connector-curvature="0"
       sodipodi:nodetypes="cccccccc" />
    <path
       style="color:#000000;clip-rule:nonzero;display:inline;overflow:visible;visibility:visible;opacity:1;isolation:auto;mix-blend-mode:normal;color-interpolation:sRGB;color-interpolation-filters:linearRGB;solid-color:#000000;solid-opacity:1;fill:#000000;fill-opacity:1;fill-rule:evenodd;stroke:none;stroke-width:15;stroke-linecap:round;stroke-linejoin:miter;stroke-miterlimit:4;stroke-dasharray:none;stroke-dashoffset:0;stroke-opacity:1;color-rendering:auto;image-rendering:auto;shape-rendering:auto;text-rendering:auto;enable-background:accumulate"
       d="m 85.035707,159.82143 c -4e-6,10.25671 -8.314715,18.57142 -18.571428,18.57142 -10.256713,0 -18.571424,-8.31471 -18.571428,-18.57142 -10e-7,-10.25672 8.314711,-18.57143 18.571428,-18.57143 10.256717,0 18.571429,8.31471 18.571428,18.57143 z"
       id="path4226-2-6"
       inkscape:connector-curvature="0"
       sodipodi:nodetypes="sssss" />
    <path
       style="color:#000000;clip-rule:nonzero;display:inline;overflow:visible;visibility:visible;opacity:1;isolation:auto;mix-blend-mode:normal;color-interpolation:sRGB;color-interpolation-filters:linearRGB;solid-color:#000000;solid-opacity:1;fill:#000000;fill-opacity:1;fill-rule:evenodd;stroke:none;stroke-width:15;stroke-linecap:round;stroke-linejoin:miter;stroke-miterlimit:4;stroke-dasharray:none;stroke-dashoffset:0;stroke-opacity:1;color-rendering:auto;image-rendering:auto;shape-rendering:auto;text-rendering:auto;enable-background:accumulate"
       d="m 157.85713,88.124987 c 0,7.347359 -5.95621,13.303573 -13.30357,13.303573 -7.34736,0 -13.30357,-5.956214 -13.30357,-13.303573 0,-7.347359 5.95621,-13.30357 13.30357,-13.303571 7.34736,10e-7 13.30357,5.956212 13.30357,13.303571 z"
       id="circle4228-9-3"
       inkscape:connector-curvature="0"
       sodipodi:nodetypes="sssss" />
    <path
       style="color:#000000;clip-rule:nonzero;display:inline;overflow:visible;visibility:visible;opacity:1;isolation:auto;mix-blend-mode:normal;color-interpolation:sRGB;color-interpolation-filters:linearRGB;solid-color:#000000;solid-opacity:1;fill:#000000;fill-opacity:1;fill-rule:evenodd;stroke:none;stroke-width:15;stroke-linecap:round;stroke-linejoin:miter;stroke-miterlimit:4;stroke-dasharray:none;stroke-dashoffset:0;stroke-opacity:1;color-rendering:auto;image-rendering:auto;shape-rendering:auto;text-rendering:auto;enable-background:accumulate"
       d="m 67.857129,63.12499 c 0,4.585936 -3.717635,8.303571 -8.303571,8.303571 -4.585935,0 -8.30357,-3.717636 -8.30357,-8.303571 0,-4.585935 3.717635,-8.30357 8.30357,-8.30357 4.585935,0 8.303571,3.717635 8.303571,8.30357 z"
       id="circle4245-3-2"
       inkscape:connector-curvature="0"
       sodipodi:nodetypes="sssss" />
    <path
       style="color:#000000;clip-rule:nonzero;display:inline;overflow:visible;visibility:visible;opacity:1;isolation:auto;mix-blend-mode:normal;color-interpolation:sRGB;color-interpolation-filters:linearRGB;solid-color:#000000;solid-opacity:1;fill:#000000;fill-opacity:1;fill-rule:evenodd;stroke:none;stroke-width:15;stroke-linecap:round;stroke-linejoin:miter;stroke-miterlimit:4;stroke-dasharray:none;stroke-dashoffset:0;stroke-opacity:1;color-rendering:auto;image-rendering:auto;shape-rendering:auto;text-rendering:auto;enable-background:accumulate"
       d="m 169.49999,127.375 c 0,5.47353 -4.43718,9.91071 -9.91071,9.91071 -5.47353,0 -9.91071,-4.43718 -9.91071,-9.91071 0,-5.47354 4.43718,-9.91071 9.91071,-9.91071 5.47353,0 9.91071,4.43717 9.91071,9.91071 z"
       id="circle4468-1-0"
       inkscape:connector-curvature="0"
       sodipodi:nodetypes="sssss" />
    <path
       style="color:#000000;font-style:normal;font-variant:normal;font-weight:normal;font-stretch:normal;font-size:medium;line-height:normal;font-family:sans-serif;text-indent:0;text-align:start;text-decoration:none;text-decoration-line:none;text-decoration-style:solid;text-decoration-color:#000000;letter-spacing:normal;word-spacing:normal;text-transform:none;direction:ltr;block-progression:tb;writing-mode:lr-tb;baseline-shift:baseline;text-anchor:start;white-space:normal;clip-rule:nonzero;display:inline;overflow:visible;visibility:visible;opacity:1;isolation:auto;mix-blend-mode:normal;color-interpolation:sRGB;color-interpolation-filters:linearRGB;solid-color:#000000;solid-opacity:1;fill:#000000;fill-opacity:1;fill-rule:evenodd;stroke:none;stroke-width:10;stroke-linecap:round;stroke-linejoin:round;stroke-miterlimit:4;stroke-dasharray:none;stroke-dashoffset:0;stroke-opacity:1;color-rendering:auto;image-rendering:auto;shape-rendering:auto;text-rendering:auto;enable-background:accumulate"
       d="m 148.31445,150.53711 c -0.13291,-0.001 -0.26583,0.003 -0.39843,0.0117 l -39.94922,2.91015 c -3.97351,0.28968 -6.02913,4.88302 -3.59766,8.03907 l 8.84375,11.48047 c 1.42531,1.84979 3.94114,2.46678 6.06055,1.48632 l 31.10547,-14.39062 c 4.84129,-2.24422 3.27154,-9.49593 -2.06446,-9.53711 z"
       id="path4224-3-6"
       inkscape:connector-curvature="0"
       sodipodi:nodetypes="ccccccccc" />
  </g>
  <g
     inkscape:groupmode="layer"
     id="layer4"
     inkscape:label="trajectories"
     style="display:inline">
    <path
       style="fill:none;fill-rule:evenodd;stroke:#ff0000;stroke-width:1px;stroke-linecap:butt;stroke-linejoin:miter;stroke-opacity:1"
       d="m 100,100 c -1.445831,25.42112 -8.770441,36.91206 -16.355186,43.27229 -7.584744,6.36024 -19.135719,11.48474 -31.19028,1.65084 -12.054561,-9.83389 -8.203854,-29.03895 7.48947,-37.93712 C 75.637329,98.08785 71.924334,62.9789 59.363395,52.942539 46.802457,42.906178 39.143892,40.467331 27.114394,39.093958"
       id="outbound"
       inkscape:label="#path4360"
       inkscape:connector-curvature="0"
       sodipodi:nodetypes="czzzzc" />
    <path
       style="color:#000000;clip-rule:nonzero;display:inline;overflow:visible;visibility:visible;opacity:1;isolation:auto;mix-blend-mode:normal;color-interpolation:sRGB;color-interpolation-filters:linearRGB;solid-color:#000000;solid-opacity:1;fill:none;fill-opacity:1;fill-rule:evenodd;stroke:#ff0000;stroke-width:1.00000012;stroke-linecap:round;stroke-linejoin:round;stroke-miterlimit:4;stroke-dasharray:none;stroke-dashoffset:0;stroke-opacity:1;color-rendering:auto;image-rendering:auto;shape-rendering:auto;text-rendering:auto;enable-background:accumulate"
       d="M 27.101626,39.08343 A 95.000008,95.000008 0 0 1 100,4.9999924 95.000008,95.000008 0 0 1 195.00001,100 l 0,0 A 95.000008,95.000008 0 0 1 100,195.00001 95.000008,95.000008 0 0 1 4.9999924,100 95.000008,95.000008 0 0 1 27.101626,39.08343"
       id="perimeter"
       inkscape:label="#path4381-2"
       inkscape:connector-curvature="0" />
    <path
       style="display:inline;fill:none;fill-rule:evenodd;stroke:#ff0000;stroke-width:1px;stroke-linecap:butt;stroke-linejoin:miter;stroke-opacity:1"
       d="m 100,100 0,30 c -1.445831,25.42112 -8.770441,36.91206 -16.355186,43.27229 -7.584744,6.36024 -19.135719,11.48474 -31.19028,1.65084 -12.054561,-9.83389 -8.203854,-29.03895 7.48947,-37.93712 C 75.637329,128.08785 71.924334,92.978905 59.363395,82.942544 46.802457,72.906183 26.769523,71.477489 27.61947,43.587611"
       id="outbound-shifted"
       inkscape:label="#path4360"
       inkscape:connector-curvature="0"
       sodipodi:nodetypes="cczzzzc" />
  </g>
</svg>
